<!-- by TradingView --><svg width="56" height="56" xmlns="http://www.w3.org/2000/svg"><path fill="#FDD835" d="M0 0h56v56H0z"/><path d="M27.99 17.569c.769 0 1.392-.624 1.392-1.393v-2.784a1.392 1.392 0 10-2.784 0v2.784c0 .77.623 1.393 1.392 1.393zm0 26.431c.769 0 1.392-.623 1.392-1.392v-2.784a1.392 1.392 0 10-2.784 0v2.784c0 .769.623 1.392 1.392 1.392zm14.618-17.383h-2.785a1.392 1.392 0 100 2.784h2.785a1.392 1.392 0 100-2.784zm-26.43 0h-2.784a1.392 1.392 0 100 2.784h2.784a1.392 1.392 0 100-2.784zm21.164 8.775a1.392 1.392 0 10-1.969 1.97l1.969 1.968c.272.272.628.408.984.408 1.23 0 1.864-1.497.984-2.377l-1.968-1.968zM18.638 20.627a1.392 1.392 0 101.97-1.969l-1.97-1.969a1.392 1.392 0 00-1.968 1.969l1.968 1.969zm17.72.407c.356 0 .712-.136.984-.407l1.969-1.97a1.392 1.392 0 10-1.97-1.968l-1.968 1.969c-.88.88-.245 2.376.985 2.376zM17.654 39.416c.356 0 .712-.136.984-.408l1.97-1.969a1.392 1.392 0 10-1.97-1.968l-1.968 1.968c-.88.88-.245 2.377.984 2.377z" fill="#fff"/><circle cx="28" cy="28" r="9" fill="#fff"/></svg>